<mxfile host="app.diagrams.net" modified="2023-02-09T08:57:40.358Z" agent="5.0 (Macintosh; Intel Mac OS X 10_15_7) AppleWebKit/537.36 (KHTML, like Gecko) Chrome/109.0.0.0 Safari/537.36" etag="1sfK0kY6KPa_-whyccwf" version="20.8.18" type="github">
  <diagram id="C5RBs43oDa-KdzZeNtuy" name="Page-1">
    <mxGraphModel dx="1242" dy="795" grid="1" gridSize="10" guides="1" tooltips="1" connect="1" arrows="1" fold="1" page="1" pageScale="1" pageWidth="827" pageHeight="1169" math="0" shadow="0">
      <root>
        <mxCell id="WIyWlLk6GJQsqaUBKTNV-0" />
        <mxCell id="WIyWlLk6GJQsqaUBKTNV-1" parent="WIyWlLk6GJQsqaUBKTNV-0" />
        <mxCell id="hp7awR136EcU53atFRj2-7" value="" style="edgeStyle=orthogonalEdgeStyle;rounded=0;orthogonalLoop=1;jettySize=auto;html=1;endArrow=blockThin;endFill=0;" parent="WIyWlLk6GJQsqaUBKTNV-1" source="WIyWlLk6GJQsqaUBKTNV-3" target="WIyWlLk6GJQsqaUBKTNV-6" edge="1">
          <mxGeometry relative="1" as="geometry" />
        </mxCell>
        <mxCell id="WIyWlLk6GJQsqaUBKTNV-3" value="业务代码" style="rounded=1;whiteSpace=wrap;html=1;fontSize=12;glass=0;strokeWidth=1;shadow=0;" parent="WIyWlLk6GJQsqaUBKTNV-1" vertex="1">
          <mxGeometry x="160" y="80" width="120" height="40" as="geometry" />
        </mxCell>
        <mxCell id="WIyWlLk6GJQsqaUBKTNV-4" value="Yes" style="rounded=0;html=1;jettySize=auto;orthogonalLoop=1;fontSize=11;endArrow=blockThin;endFill=0;endSize=8;strokeWidth=1;shadow=0;labelBackgroundColor=none;edgeStyle=orthogonalEdgeStyle;" parent="WIyWlLk6GJQsqaUBKTNV-1" source="WIyWlLk6GJQsqaUBKTNV-6" edge="1">
          <mxGeometry y="20" relative="1" as="geometry">
            <mxPoint as="offset" />
            <mxPoint x="220" y="290" as="targetPoint" />
          </mxGeometry>
        </mxCell>
        <mxCell id="WIyWlLk6GJQsqaUBKTNV-5" value="No" style="edgeStyle=orthogonalEdgeStyle;rounded=0;html=1;jettySize=auto;orthogonalLoop=1;fontSize=11;endArrow=blockThin;endFill=0;endSize=8;strokeWidth=1;shadow=0;labelBackgroundColor=none;" parent="WIyWlLk6GJQsqaUBKTNV-1" source="WIyWlLk6GJQsqaUBKTNV-6" target="WIyWlLk6GJQsqaUBKTNV-7" edge="1">
          <mxGeometry y="10" relative="1" as="geometry">
            <mxPoint as="offset" />
          </mxGeometry>
        </mxCell>
        <mxCell id="WIyWlLk6GJQsqaUBKTNV-6" value="是否直出" style="rhombus;whiteSpace=wrap;html=1;shadow=0;fontFamily=Helvetica;fontSize=12;align=center;strokeWidth=1;spacing=6;spacingTop=-4;" parent="WIyWlLk6GJQsqaUBKTNV-1" vertex="1">
          <mxGeometry x="170" y="170" width="100" height="80" as="geometry" />
        </mxCell>
        <mxCell id="hp7awR136EcU53atFRj2-22" style="edgeStyle=orthogonalEdgeStyle;rounded=0;orthogonalLoop=1;jettySize=auto;html=1;exitX=0.5;exitY=1;exitDx=0;exitDy=0;entryX=0.5;entryY=0;entryDx=0;entryDy=0;endArrow=blockThin;endFill=0;" parent="WIyWlLk6GJQsqaUBKTNV-1" source="WIyWlLk6GJQsqaUBKTNV-7" target="hp7awR136EcU53atFRj2-20" edge="1">
          <mxGeometry relative="1" as="geometry">
            <Array as="points">
              <mxPoint x="370" y="350" />
              <mxPoint x="290" y="350" />
            </Array>
          </mxGeometry>
        </mxCell>
        <mxCell id="WIyWlLk6GJQsqaUBKTNV-7" value="client端模版" style="rounded=1;whiteSpace=wrap;html=1;fontSize=12;glass=0;strokeWidth=1;shadow=0;" parent="WIyWlLk6GJQsqaUBKTNV-1" vertex="1">
          <mxGeometry x="310" y="290" width="120" height="40" as="geometry" />
        </mxCell>
        <mxCell id="hp7awR136EcU53atFRj2-21" value="" style="edgeStyle=orthogonalEdgeStyle;rounded=0;orthogonalLoop=1;jettySize=auto;html=1;endArrow=blockThin;endFill=0;" parent="WIyWlLk6GJQsqaUBKTNV-1" source="hp7awR136EcU53atFRj2-1" target="hp7awR136EcU53atFRj2-20" edge="1">
          <mxGeometry relative="1" as="geometry" />
        </mxCell>
        <mxCell id="hp7awR136EcU53atFRj2-1" value="server端模版" style="rounded=1;whiteSpace=wrap;html=1;fontSize=12;glass=0;strokeWidth=1;shadow=0;" parent="WIyWlLk6GJQsqaUBKTNV-1" vertex="1">
          <mxGeometry x="160" y="290" width="120" height="40" as="geometry" />
        </mxCell>
        <mxCell id="hp7awR136EcU53atFRj2-2" style="edgeStyle=orthogonalEdgeStyle;rounded=0;orthogonalLoop=1;jettySize=auto;html=1;exitX=0.5;exitY=1;exitDx=0;exitDy=0;" parent="WIyWlLk6GJQsqaUBKTNV-1" source="WIyWlLk6GJQsqaUBKTNV-6" target="WIyWlLk6GJQsqaUBKTNV-6" edge="1">
          <mxGeometry relative="1" as="geometry" />
        </mxCell>
        <mxCell id="hp7awR136EcU53atFRj2-4" value="Yes" style="edgeStyle=orthogonalEdgeStyle;rounded=0;html=1;jettySize=auto;orthogonalLoop=1;fontSize=11;endArrow=blockThin;endFill=0;endSize=8;strokeWidth=1;shadow=0;labelBackgroundColor=none;exitX=0.5;exitY=1;exitDx=0;exitDy=0;entryX=0.5;entryY=0;entryDx=0;entryDy=0;" parent="WIyWlLk6GJQsqaUBKTNV-1" source="WIyWlLk6GJQsqaUBKTNV-6" target="WIyWlLk6GJQsqaUBKTNV-7" edge="1">
          <mxGeometry y="10" relative="1" as="geometry">
            <mxPoint as="offset" />
            <mxPoint x="280" y="220" as="sourcePoint" />
            <mxPoint x="380" y="280" as="targetPoint" />
            <Array as="points">
              <mxPoint x="370" y="250" />
            </Array>
          </mxGeometry>
        </mxCell>
        <mxCell id="hp7awR136EcU53atFRj2-15" value="" style="edgeStyle=orthogonalEdgeStyle;rounded=0;orthogonalLoop=1;jettySize=auto;html=1;endArrow=blockThin;endFill=0;" parent="WIyWlLk6GJQsqaUBKTNV-1" source="hp7awR136EcU53atFRj2-8" edge="1">
          <mxGeometry x="0.5" y="30" relative="1" as="geometry">
            <mxPoint x="290" y="560" as="targetPoint" />
            <Array as="points">
              <mxPoint x="370" y="540" />
              <mxPoint x="290" y="540" />
            </Array>
            <mxPoint as="offset" />
          </mxGeometry>
        </mxCell>
        <mxCell id="hp7awR136EcU53atFRj2-8" value="client端入口文件" style="rounded=1;whiteSpace=wrap;html=1;fontSize=12;glass=0;strokeWidth=1;shadow=0;" parent="WIyWlLk6GJQsqaUBKTNV-1" vertex="1">
          <mxGeometry x="310" y="480" width="120" height="40" as="geometry" />
        </mxCell>
        <mxCell id="hp7awR136EcU53atFRj2-13" value="" style="edgeStyle=orthogonalEdgeStyle;rounded=0;orthogonalLoop=1;jettySize=auto;html=1;endArrow=blockThin;endFill=0;" parent="WIyWlLk6GJQsqaUBKTNV-1" source="hp7awR136EcU53atFRj2-10" target="hp7awR136EcU53atFRj2-12" edge="1">
          <mxGeometry relative="1" as="geometry" />
        </mxCell>
        <mxCell id="hp7awR136EcU53atFRj2-10" value="server端入口文件" style="rounded=1;whiteSpace=wrap;html=1;fontSize=12;glass=0;strokeWidth=1;shadow=0;" parent="WIyWlLk6GJQsqaUBKTNV-1" vertex="1">
          <mxGeometry x="150" y="480" width="120" height="40" as="geometry" />
        </mxCell>
        <mxCell id="hp7awR136EcU53atFRj2-17" value="" style="edgeStyle=orthogonalEdgeStyle;rounded=0;orthogonalLoop=1;jettySize=auto;html=1;endArrow=blockThin;endFill=0;" parent="WIyWlLk6GJQsqaUBKTNV-1" source="hp7awR136EcU53atFRj2-12" target="hp7awR136EcU53atFRj2-16" edge="1">
          <mxGeometry relative="1" as="geometry" />
        </mxCell>
        <mxCell id="hp7awR136EcU53atFRj2-19" style="edgeStyle=orthogonalEdgeStyle;rounded=0;orthogonalLoop=1;jettySize=auto;html=1;entryX=0.5;entryY=0;entryDx=0;entryDy=0;endArrow=blockThin;endFill=0;" parent="WIyWlLk6GJQsqaUBKTNV-1" source="hp7awR136EcU53atFRj2-12" target="hp7awR136EcU53atFRj2-18" edge="1">
          <mxGeometry relative="1" as="geometry" />
        </mxCell>
        <mxCell id="hp7awR136EcU53atFRj2-12" value="构建器" style="rhombus;whiteSpace=wrap;html=1;rounded=1;glass=0;strokeWidth=1;shadow=0;" parent="WIyWlLk6GJQsqaUBKTNV-1" vertex="1">
          <mxGeometry x="250" y="560" width="80" height="80" as="geometry" />
        </mxCell>
        <mxCell id="hp7awR136EcU53atFRj2-26" value="" style="edgeStyle=orthogonalEdgeStyle;rounded=0;orthogonalLoop=1;jettySize=auto;html=1;endArrow=blockThin;endFill=0;" parent="WIyWlLk6GJQsqaUBKTNV-1" source="hp7awR136EcU53atFRj2-16" target="hp7awR136EcU53atFRj2-25" edge="1">
          <mxGeometry relative="1" as="geometry" />
        </mxCell>
        <mxCell id="hp7awR136EcU53atFRj2-16" value="服务端渲染&lt;br&gt;server bundle" style="whiteSpace=wrap;html=1;rounded=1;glass=0;strokeWidth=1;shadow=0;" parent="WIyWlLk6GJQsqaUBKTNV-1" vertex="1">
          <mxGeometry x="150" y="680" width="120" height="60" as="geometry" />
        </mxCell>
        <mxCell id="hp7awR136EcU53atFRj2-27" style="edgeStyle=orthogonalEdgeStyle;rounded=0;orthogonalLoop=1;jettySize=auto;html=1;exitX=0.5;exitY=1;exitDx=0;exitDy=0;endArrow=blockThin;endFill=0;" parent="WIyWlLk6GJQsqaUBKTNV-1" source="hp7awR136EcU53atFRj2-18" edge="1">
          <mxGeometry relative="1" as="geometry">
            <mxPoint x="290" y="770" as="targetPoint" />
          </mxGeometry>
        </mxCell>
        <mxCell id="hp7awR136EcU53atFRj2-18" value="客户端渲染&lt;br&gt;client bundle" style="whiteSpace=wrap;html=1;rounded=1;glass=0;strokeWidth=1;shadow=0;" parent="WIyWlLk6GJQsqaUBKTNV-1" vertex="1">
          <mxGeometry x="310" y="680" width="120" height="60" as="geometry" />
        </mxCell>
        <mxCell id="hp7awR136EcU53atFRj2-23" style="edgeStyle=orthogonalEdgeStyle;rounded=0;orthogonalLoop=1;jettySize=auto;html=1;exitX=0.5;exitY=1;exitDx=0;exitDy=0;entryX=0.5;entryY=0;entryDx=0;entryDy=0;endArrow=blockThin;endFill=0;" parent="WIyWlLk6GJQsqaUBKTNV-1" source="hp7awR136EcU53atFRj2-20" target="hp7awR136EcU53atFRj2-10" edge="1">
          <mxGeometry relative="1" as="geometry">
            <Array as="points">
              <mxPoint x="290" y="460" />
              <mxPoint x="210" y="460" />
            </Array>
          </mxGeometry>
        </mxCell>
        <mxCell id="hp7awR136EcU53atFRj2-24" style="edgeStyle=orthogonalEdgeStyle;rounded=0;orthogonalLoop=1;jettySize=auto;html=1;exitX=0.5;exitY=1;exitDx=0;exitDy=0;entryX=0.5;entryY=0;entryDx=0;entryDy=0;endArrow=blockThin;endFill=0;" parent="WIyWlLk6GJQsqaUBKTNV-1" source="hp7awR136EcU53atFRj2-20" target="hp7awR136EcU53atFRj2-8" edge="1">
          <mxGeometry relative="1" as="geometry">
            <Array as="points">
              <mxPoint x="290" y="460" />
              <mxPoint x="370" y="460" />
            </Array>
          </mxGeometry>
        </mxCell>
        <mxCell id="hp7awR136EcU53atFRj2-20" value="生成器" style="rhombus;whiteSpace=wrap;html=1;rounded=1;glass=0;strokeWidth=1;shadow=0;" parent="WIyWlLk6GJQsqaUBKTNV-1" vertex="1">
          <mxGeometry x="250" y="370" width="80" height="80" as="geometry" />
        </mxCell>
        <mxCell id="hp7awR136EcU53atFRj2-29" style="edgeStyle=orthogonalEdgeStyle;rounded=0;orthogonalLoop=1;jettySize=auto;html=1;exitX=0.5;exitY=1;exitDx=0;exitDy=0;entryX=0.5;entryY=0;entryDx=0;entryDy=0;endArrow=blockThin;endFill=0;" parent="WIyWlLk6GJQsqaUBKTNV-1" source="hp7awR136EcU53atFRj2-25" target="hp7awR136EcU53atFRj2-28" edge="1">
          <mxGeometry relative="1" as="geometry" />
        </mxCell>
        <mxCell id="hp7awR136EcU53atFRj2-25" value="中间件/插件" style="rhombus;whiteSpace=wrap;html=1;rounded=1;glass=0;strokeWidth=1;shadow=0;" parent="WIyWlLk6GJQsqaUBKTNV-1" vertex="1">
          <mxGeometry x="225" y="770" width="130" height="80" as="geometry" />
        </mxCell>
        <mxCell id="hp7awR136EcU53atFRj2-28" value="输出" style="whiteSpace=wrap;html=1;rounded=1;glass=0;strokeWidth=1;shadow=0;" parent="WIyWlLk6GJQsqaUBKTNV-1" vertex="1">
          <mxGeometry x="230" y="870" width="120" height="40" as="geometry" />
        </mxCell>
        <mxCell id="hp7awR136EcU53atFRj2-33" value="" style="edgeStyle=orthogonalEdgeStyle;rounded=0;orthogonalLoop=1;jettySize=auto;html=1;endArrow=blockThin;endFill=0;" parent="WIyWlLk6GJQsqaUBKTNV-1" source="hp7awR136EcU53atFRj2-31" target="hp7awR136EcU53atFRj2-32" edge="1">
          <mxGeometry relative="1" as="geometry" />
        </mxCell>
        <mxCell id="hp7awR136EcU53atFRj2-31" value="触发发布" style="rounded=1;whiteSpace=wrap;html=1;fontSize=12;glass=0;strokeWidth=1;shadow=0;" parent="WIyWlLk6GJQsqaUBKTNV-1" vertex="1">
          <mxGeometry x="660" y="80" width="120" height="40" as="geometry" />
        </mxCell>
        <mxCell id="hp7awR136EcU53atFRj2-35" value="" style="edgeStyle=orthogonalEdgeStyle;rounded=0;orthogonalLoop=1;jettySize=auto;html=1;endArrow=blockThin;endFill=0;" parent="WIyWlLk6GJQsqaUBKTNV-1" source="hp7awR136EcU53atFRj2-32" target="hp7awR136EcU53atFRj2-34" edge="1">
          <mxGeometry relative="1" as="geometry" />
        </mxCell>
        <mxCell id="hp7awR136EcU53atFRj2-32" value="OCI构建" style="rounded=1;whiteSpace=wrap;html=1;fontSize=12;glass=0;strokeWidth=1;shadow=0;" parent="WIyWlLk6GJQsqaUBKTNV-1" vertex="1">
          <mxGeometry x="660" y="160" width="120" height="40" as="geometry" />
        </mxCell>
        <mxCell id="hp7awR136EcU53atFRj2-37" value="" style="edgeStyle=orthogonalEdgeStyle;rounded=0;orthogonalLoop=1;jettySize=auto;html=1;endArrow=blockThin;endFill=0;" parent="WIyWlLk6GJQsqaUBKTNV-1" source="hp7awR136EcU53atFRj2-34" edge="1">
          <mxGeometry relative="1" as="geometry">
            <mxPoint x="720" y="350" as="targetPoint" />
          </mxGeometry>
        </mxCell>
        <mxCell id="hp7awR136EcU53atFRj2-34" value="发布系统&lt;br&gt;触发上云发布" style="rounded=1;whiteSpace=wrap;html=1;fontSize=12;glass=0;strokeWidth=1;shadow=0;" parent="WIyWlLk6GJQsqaUBKTNV-1" vertex="1">
          <mxGeometry x="660" y="240" width="120" height="70" as="geometry" />
        </mxCell>
        <mxCell id="hp7awR136EcU53atFRj2-42" style="edgeStyle=orthogonalEdgeStyle;rounded=0;orthogonalLoop=1;jettySize=auto;html=1;exitX=0.5;exitY=1;exitDx=0;exitDy=0;entryX=0.5;entryY=0;entryDx=0;entryDy=0;endArrow=blockThin;endFill=0;" parent="WIyWlLk6GJQsqaUBKTNV-1" source="hp7awR136EcU53atFRj2-40" target="hp7awR136EcU53atFRj2-41" edge="1">
          <mxGeometry relative="1" as="geometry" />
        </mxCell>
        <mxCell id="hp7awR136EcU53atFRj2-40" value="静态资源发布" style="rounded=1;whiteSpace=wrap;html=1;fontSize=12;glass=0;strokeWidth=1;shadow=0;" parent="WIyWlLk6GJQsqaUBKTNV-1" vertex="1">
          <mxGeometry x="660" y="350" width="120" height="40" as="geometry" />
        </mxCell>
        <mxCell id="hp7awR136EcU53atFRj2-44" value="" style="edgeStyle=orthogonalEdgeStyle;rounded=0;orthogonalLoop=1;jettySize=auto;html=1;endArrow=blockThin;endFill=0;" parent="WIyWlLk6GJQsqaUBKTNV-1" source="hp7awR136EcU53atFRj2-41" target="hp7awR136EcU53atFRj2-43" edge="1">
          <mxGeometry relative="1" as="geometry" />
        </mxCell>
        <mxCell id="hp7awR136EcU53atFRj2-41" value="深圳/上海上云预发布" style="rounded=1;whiteSpace=wrap;html=1;fontSize=12;glass=0;strokeWidth=1;shadow=0;" parent="WIyWlLk6GJQsqaUBKTNV-1" vertex="1">
          <mxGeometry x="660" y="430" width="120" height="40" as="geometry" />
        </mxCell>
        <mxCell id="hp7awR136EcU53atFRj2-57" value="" style="edgeStyle=orthogonalEdgeStyle;rounded=0;orthogonalLoop=1;jettySize=auto;html=1;endArrow=blockThin;endFill=0;" parent="WIyWlLk6GJQsqaUBKTNV-1" source="hp7awR136EcU53atFRj2-43" target="hp7awR136EcU53atFRj2-56" edge="1">
          <mxGeometry relative="1" as="geometry" />
        </mxCell>
        <mxCell id="hp7awR136EcU53atFRj2-43" value="深圳/上海灰度发布" style="rounded=1;whiteSpace=wrap;html=1;fontSize=12;glass=0;strokeWidth=1;shadow=0;" parent="WIyWlLk6GJQsqaUBKTNV-1" vertex="1">
          <mxGeometry x="660" y="510" width="120" height="40" as="geometry" />
        </mxCell>
        <mxCell id="hp7awR136EcU53atFRj2-45" value="" style="edgeStyle=orthogonalEdgeStyle;rounded=0;orthogonalLoop=1;jettySize=auto;html=1;endArrow=blockThin;endFill=0;" parent="WIyWlLk6GJQsqaUBKTNV-1" source="hp7awR136EcU53atFRj2-46" target="hp7awR136EcU53atFRj2-48" edge="1">
          <mxGeometry relative="1" as="geometry" />
        </mxCell>
        <mxCell id="hp7awR136EcU53atFRj2-46" value="触发发布" style="rounded=1;whiteSpace=wrap;html=1;fontSize=12;glass=0;strokeWidth=1;shadow=0;" parent="WIyWlLk6GJQsqaUBKTNV-1" vertex="1">
          <mxGeometry x="880" y="80" width="120" height="40" as="geometry" />
        </mxCell>
        <mxCell id="hp7awR136EcU53atFRj2-61" value="" style="edgeStyle=orthogonalEdgeStyle;rounded=0;orthogonalLoop=1;jettySize=auto;html=1;endArrow=blockThin;endFill=0;dashed=1;" parent="WIyWlLk6GJQsqaUBKTNV-1" source="hp7awR136EcU53atFRj2-48" target="hp7awR136EcU53atFRj2-60" edge="1">
          <mxGeometry relative="1" as="geometry" />
        </mxCell>
        <mxCell id="hp7awR136EcU53atFRj2-48" value="OCI构建" style="rounded=1;whiteSpace=wrap;html=1;fontSize=12;glass=0;strokeWidth=1;shadow=0;" parent="WIyWlLk6GJQsqaUBKTNV-1" vertex="1">
          <mxGeometry x="880" y="160" width="120" height="40" as="geometry" />
        </mxCell>
        <mxCell id="hp7awR136EcU53atFRj2-51" style="edgeStyle=orthogonalEdgeStyle;rounded=0;orthogonalLoop=1;jettySize=auto;html=1;exitX=0.5;exitY=1;exitDx=0;exitDy=0;entryX=0.5;entryY=0;entryDx=0;entryDy=0;endArrow=blockThin;endFill=0;" parent="WIyWlLk6GJQsqaUBKTNV-1" target="hp7awR136EcU53atFRj2-54" edge="1">
          <mxGeometry relative="1" as="geometry">
            <mxPoint x="940" y="200" as="sourcePoint" />
          </mxGeometry>
        </mxCell>
        <mxCell id="hp7awR136EcU53atFRj2-53" value="" style="edgeStyle=orthogonalEdgeStyle;rounded=0;orthogonalLoop=1;jettySize=auto;html=1;endArrow=blockThin;endFill=0;" parent="WIyWlLk6GJQsqaUBKTNV-1" source="hp7awR136EcU53atFRj2-54" target="hp7awR136EcU53atFRj2-55" edge="1">
          <mxGeometry relative="1" as="geometry" />
        </mxCell>
        <mxCell id="hp7awR136EcU53atFRj2-54" value="深圳/上海灰度发布" style="rounded=1;whiteSpace=wrap;html=1;fontSize=12;glass=0;strokeWidth=1;shadow=0;" parent="WIyWlLk6GJQsqaUBKTNV-1" vertex="1">
          <mxGeometry x="880" y="240" width="120" height="40" as="geometry" />
        </mxCell>
        <mxCell id="hp7awR136EcU53atFRj2-55" value="验证" style="rounded=1;whiteSpace=wrap;html=1;fontSize=12;glass=0;strokeWidth=1;shadow=0;" parent="WIyWlLk6GJQsqaUBKTNV-1" vertex="1">
          <mxGeometry x="880" y="320" width="120" height="40" as="geometry" />
        </mxCell>
        <mxCell id="hp7awR136EcU53atFRj2-56" value="完成" style="rounded=1;whiteSpace=wrap;html=1;fontSize=12;glass=0;strokeWidth=1;shadow=0;" parent="WIyWlLk6GJQsqaUBKTNV-1" vertex="1">
          <mxGeometry x="660" y="590" width="120" height="40" as="geometry" />
        </mxCell>
        <mxCell id="hp7awR136EcU53atFRj2-62" style="edgeStyle=orthogonalEdgeStyle;rounded=0;orthogonalLoop=1;jettySize=auto;html=1;exitX=0.5;exitY=1;exitDx=0;exitDy=0;endArrow=blockThin;endFill=0;dashed=1;" parent="WIyWlLk6GJQsqaUBKTNV-1" source="hp7awR136EcU53atFRj2-60" edge="1">
          <mxGeometry relative="1" as="geometry">
            <mxPoint x="940" y="240" as="targetPoint" />
          </mxGeometry>
        </mxCell>
        <mxCell id="hp7awR136EcU53atFRj2-60" value="期间可进行&lt;br&gt;静态资源发布" style="rounded=1;whiteSpace=wrap;html=1;fontSize=12;glass=0;strokeWidth=1;shadow=0;" parent="WIyWlLk6GJQsqaUBKTNV-1" vertex="1">
          <mxGeometry x="1080" y="160" width="120" height="40" as="geometry" />
        </mxCell>
        <mxCell id="WOxzetxR-zfh82D_1tsL-2" style="edgeStyle=orthogonalEdgeStyle;rounded=0;orthogonalLoop=1;jettySize=auto;html=1;exitX=0.5;exitY=1;exitDx=0;exitDy=0;entryX=0.5;entryY=0;entryDx=0;entryDy=0;" edge="1" parent="WIyWlLk6GJQsqaUBKTNV-1" source="WOxzetxR-zfh82D_1tsL-0" target="WOxzetxR-zfh82D_1tsL-1">
          <mxGeometry relative="1" as="geometry" />
        </mxCell>
        <mxCell id="WOxzetxR-zfh82D_1tsL-0" value="新页面接入" style="rounded=1;whiteSpace=wrap;html=1;fontSize=12;glass=0;strokeWidth=1;shadow=0;" vertex="1" parent="WIyWlLk6GJQsqaUBKTNV-1">
          <mxGeometry x="1390" y="80" width="120" height="40" as="geometry" />
        </mxCell>
        <mxCell id="WOxzetxR-zfh82D_1tsL-4" value="" style="edgeStyle=orthogonalEdgeStyle;rounded=0;orthogonalLoop=1;jettySize=auto;html=1;" edge="1" parent="WIyWlLk6GJQsqaUBKTNV-1" source="WOxzetxR-zfh82D_1tsL-1" target="WOxzetxR-zfh82D_1tsL-3">
          <mxGeometry relative="1" as="geometry" />
        </mxCell>
        <mxCell id="WOxzetxR-zfh82D_1tsL-1" value="确定页面ID" style="rounded=1;whiteSpace=wrap;html=1;fontSize=12;glass=0;strokeWidth=1;shadow=0;" vertex="1" parent="WIyWlLk6GJQsqaUBKTNV-1">
          <mxGeometry x="1390" y="160" width="120" height="40" as="geometry" />
        </mxCell>
        <mxCell id="WOxzetxR-zfh82D_1tsL-6" value="" style="edgeStyle=orthogonalEdgeStyle;rounded=0;orthogonalLoop=1;jettySize=auto;html=1;" edge="1" parent="WIyWlLk6GJQsqaUBKTNV-1" source="WOxzetxR-zfh82D_1tsL-3" target="WOxzetxR-zfh82D_1tsL-5">
          <mxGeometry relative="1" as="geometry" />
        </mxCell>
        <mxCell id="WOxzetxR-zfh82D_1tsL-3" value="初始化后台服务" style="rounded=1;whiteSpace=wrap;html=1;fontSize=12;glass=0;strokeWidth=1;shadow=0;" vertex="1" parent="WIyWlLk6GJQsqaUBKTNV-1">
          <mxGeometry x="1390" y="230" width="120" height="40" as="geometry" />
        </mxCell>
        <mxCell id="WOxzetxR-zfh82D_1tsL-8" value="" style="edgeStyle=orthogonalEdgeStyle;rounded=0;orthogonalLoop=1;jettySize=auto;html=1;" edge="1" parent="WIyWlLk6GJQsqaUBKTNV-1" source="WOxzetxR-zfh82D_1tsL-5" target="WOxzetxR-zfh82D_1tsL-7">
          <mxGeometry relative="1" as="geometry" />
        </mxCell>
        <mxCell id="WOxzetxR-zfh82D_1tsL-5" value="初始化前端界面" style="rounded=1;whiteSpace=wrap;html=1;fontSize=12;glass=0;strokeWidth=1;shadow=0;" vertex="1" parent="WIyWlLk6GJQsqaUBKTNV-1">
          <mxGeometry x="1390" y="300" width="120" height="40" as="geometry" />
        </mxCell>
        <mxCell id="WOxzetxR-zfh82D_1tsL-12" style="edgeStyle=orthogonalEdgeStyle;rounded=0;orthogonalLoop=1;jettySize=auto;html=1;exitX=0.5;exitY=1;exitDx=0;exitDy=0;entryX=0.5;entryY=0;entryDx=0;entryDy=0;" edge="1" parent="WIyWlLk6GJQsqaUBKTNV-1" source="WOxzetxR-zfh82D_1tsL-7" target="WOxzetxR-zfh82D_1tsL-11">
          <mxGeometry relative="1" as="geometry" />
        </mxCell>
        <mxCell id="WOxzetxR-zfh82D_1tsL-7" value="新增前端配置项" style="rounded=1;whiteSpace=wrap;html=1;fontSize=12;glass=0;strokeWidth=1;shadow=0;" vertex="1" parent="WIyWlLk6GJQsqaUBKTNV-1">
          <mxGeometry x="1390" y="370" width="120" height="40" as="geometry" />
        </mxCell>
        <mxCell id="WOxzetxR-zfh82D_1tsL-14" value="" style="edgeStyle=orthogonalEdgeStyle;rounded=0;orthogonalLoop=1;jettySize=auto;html=1;" edge="1" parent="WIyWlLk6GJQsqaUBKTNV-1" source="WOxzetxR-zfh82D_1tsL-11">
          <mxGeometry relative="1" as="geometry">
            <mxPoint x="1640" y="480" as="targetPoint" />
          </mxGeometry>
        </mxCell>
        <mxCell id="WOxzetxR-zfh82D_1tsL-16" value="" style="edgeStyle=orthogonalEdgeStyle;rounded=0;orthogonalLoop=1;jettySize=auto;html=1;" edge="1" parent="WIyWlLk6GJQsqaUBKTNV-1" source="WOxzetxR-zfh82D_1tsL-11">
          <mxGeometry relative="1" as="geometry">
            <mxPoint x="1450" y="560" as="targetPoint" />
          </mxGeometry>
        </mxCell>
        <mxCell id="WOxzetxR-zfh82D_1tsL-11" value="使用逍遥默认配置下发接口" style="rhombus;whiteSpace=wrap;html=1;rounded=1;glass=0;strokeWidth=1;shadow=0;" vertex="1" parent="WIyWlLk6GJQsqaUBKTNV-1">
          <mxGeometry x="1365" y="440" width="170" height="80" as="geometry" />
        </mxCell>
        <mxCell id="WOxzetxR-zfh82D_1tsL-17" value="是" style="text;html=1;align=center;verticalAlign=middle;resizable=0;points=[];autosize=1;strokeColor=none;fillColor=none;" vertex="1" parent="WIyWlLk6GJQsqaUBKTNV-1">
          <mxGeometry x="1440" y="515" width="40" height="30" as="geometry" />
        </mxCell>
        <mxCell id="WOxzetxR-zfh82D_1tsL-18" value="完成接入" style="rounded=1;whiteSpace=wrap;html=1;fontSize=12;glass=0;strokeWidth=1;shadow=0;" vertex="1" parent="WIyWlLk6GJQsqaUBKTNV-1">
          <mxGeometry x="1390" y="560" width="120" height="40" as="geometry" />
        </mxCell>
        <mxCell id="WOxzetxR-zfh82D_1tsL-21" style="edgeStyle=orthogonalEdgeStyle;rounded=0;orthogonalLoop=1;jettySize=auto;html=1;exitX=0.5;exitY=1;exitDx=0;exitDy=0;entryX=1;entryY=0.5;entryDx=0;entryDy=0;" edge="1" parent="WIyWlLk6GJQsqaUBKTNV-1" source="WOxzetxR-zfh82D_1tsL-19" target="WOxzetxR-zfh82D_1tsL-18">
          <mxGeometry relative="1" as="geometry" />
        </mxCell>
        <mxCell id="WOxzetxR-zfh82D_1tsL-19" value="手动接入后台接口" style="rounded=1;whiteSpace=wrap;html=1;fontSize=12;glass=0;strokeWidth=1;shadow=0;" vertex="1" parent="WIyWlLk6GJQsqaUBKTNV-1">
          <mxGeometry x="1640" y="460" width="120" height="40" as="geometry" />
        </mxCell>
        <mxCell id="WOxzetxR-zfh82D_1tsL-20" value="否" style="text;html=1;align=center;verticalAlign=middle;resizable=0;points=[];autosize=1;strokeColor=none;fillColor=none;" vertex="1" parent="WIyWlLk6GJQsqaUBKTNV-1">
          <mxGeometry x="1560" y="455" width="40" height="30" as="geometry" />
        </mxCell>
        <mxCell id="WOxzetxR-zfh82D_1tsL-22" value="" style="shape=curlyBracket;whiteSpace=wrap;html=1;rounded=1;flipH=1;labelPosition=right;verticalLabelPosition=middle;align=left;verticalAlign=middle;" vertex="1" parent="WIyWlLk6GJQsqaUBKTNV-1">
          <mxGeometry x="1550" y="230" width="20" height="120" as="geometry" />
        </mxCell>
        <mxCell id="WOxzetxR-zfh82D_1tsL-23" value="需要逍遥开发者操作，工作量1d" style="text;html=1;align=center;verticalAlign=middle;resizable=0;points=[];autosize=1;strokeColor=none;fillColor=none;" vertex="1" parent="WIyWlLk6GJQsqaUBKTNV-1">
          <mxGeometry x="1570" y="275" width="190" height="30" as="geometry" />
        </mxCell>
        <mxCell id="WOxzetxR-zfh82D_1tsL-24" value="" style="shape=curlyBracket;whiteSpace=wrap;html=1;rounded=1;flipH=1;labelPosition=right;verticalLabelPosition=middle;align=left;verticalAlign=middle;" vertex="1" parent="WIyWlLk6GJQsqaUBKTNV-1">
          <mxGeometry x="1800" y="380" width="20" height="120" as="geometry" />
        </mxCell>
        <mxCell id="WOxzetxR-zfh82D_1tsL-25" value="业务开发者自行操作，有文档指引" style="text;html=1;align=center;verticalAlign=middle;resizable=0;points=[];autosize=1;strokeColor=none;fillColor=none;" vertex="1" parent="WIyWlLk6GJQsqaUBKTNV-1">
          <mxGeometry x="1830" y="425" width="200" height="30" as="geometry" />
        </mxCell>
      </root>
    </mxGraphModel>
  </diagram>
</mxfile>
